<svg width="27" height="27" viewBox="0 0 27 27" fill="none" xmlns="http://www.w3.org/2000/svg">
<g clip-path="url(#clip0_84_488)">
<path d="M11.3213 21.2429C10.012 21.2429 8.94672 22.3082 8.94672 23.6175C8.94672 24.9268 10.012 25.9921 11.3213 25.9921C12.6306 25.9921 13.6959 24.9268 13.6959 23.6175C13.6958 22.3082 12.6306 21.2429 11.3213 21.2429ZM11.3213 24.6661C10.743 24.6661 10.2726 24.1956 10.2726 23.6174C10.2726 23.0391 10.7431 22.5687 11.3213 22.5687C11.8995 22.5687 12.37 23.0392 12.37 23.6174C12.37 24.1957 11.8995 24.6661 11.3213 24.6661Z" fill="#2A2529"/>
<path d="M19.6505 21.2429C18.3411 21.2429 17.2759 22.3082 17.2759 23.6175C17.2759 24.9268 18.3411 25.9921 19.6505 25.9921C20.9598 25.9921 22.025 24.9268 22.025 23.6175C22.025 22.3082 20.9597 21.2429 19.6505 21.2429ZM19.6505 24.6661C19.0722 24.6661 18.6017 24.1956 18.6017 23.6174C18.6017 23.0391 19.0722 22.5687 19.6505 22.5687C20.2287 22.5687 20.6992 23.0392 20.6992 23.6174C20.6992 24.1957 20.2287 24.6661 19.6505 24.6661Z" fill="#2A2529"/>
<path d="M20.2351 8.74103H10.735C10.3689 8.74103 10.0721 9.03782 10.0721 9.40395C10.0721 9.77009 10.3689 10.0669 10.735 10.0669H20.2351C20.6012 10.0669 20.898 9.77009 20.898 9.40395C20.898 9.03776 20.6012 8.74103 20.2351 8.74103Z" fill="#2A2529"/>
<path d="M19.718 12.1835H11.2521C10.886 12.1835 10.5892 12.4803 10.5892 12.8464C10.5892 13.2125 10.886 13.5093 11.2521 13.5093H19.7179C20.0841 13.5093 20.3809 13.2125 20.3809 12.8464C20.3809 12.4803 20.0841 12.1835 19.718 12.1835Z" fill="#2A2529"/>
<path d="M26.7016 5.78732C26.4488 5.47703 26.0742 5.29911 25.6739 5.29911H5.02443L4.6074 3.27468C4.52034 2.85239 4.2323 2.4978 3.83674 2.32604L0.927013 1.06305C0.591094 0.917135 0.200701 1.07128 0.0549953 1.40709C-0.0908683 1.74301 0.0632746 2.13346 0.399035 2.27916L3.30882 3.5422L6.51645 19.1126C6.6428 19.7258 7.18891 20.1709 7.81503 20.1709H23.6969C24.063 20.1709 24.3598 19.8741 24.3598 19.508C24.3598 19.1419 24.063 18.8451 23.6969 18.8451H7.81508L7.4249 16.9511H23.8196C24.4457 16.9511 24.9919 16.506 25.1182 15.8928L26.9725 6.89232C27.0532 6.5004 26.9545 6.09756 26.7016 5.78732ZM23.8196 15.6253H7.15179L5.29759 6.6249L25.6738 6.62496L23.8196 15.6253Z" fill="#2A2529"/>
</g>
<defs>
<clipPath id="clip0_84_488">
<rect width="27" height="27" fill="white"/>
</clipPath>
</defs>
</svg>
