<svg width="120" height="120" viewBox="0 0 120 120" fill="none" xmlns="http://www.w3.org/2000/svg">
<circle cx="60" cy="60" r="60" fill="#CADA66"/>
<path d="M97.9559 74.1046L99.625 67.7174C102.174 57.9879 100.629 48.0282 93.9684 40.7613C93.4715 40.22 92.6301 40.1824 92.0868 40.6793C91.5454 41.1769 91.5078 42.0182 92.0054 42.5616C98.1192 49.2318 99.3297 58.3256 97.0489 67.0449L95.3962 73.3651H28.3193L29.5284 67.6573C33.6574 48.1587 54.5489 32.431 75.1807 34.5846C80.1141 35.1 84.5718 36.687 88.2257 39.2501C88.8293 39.6732 89.6583 39.5256 90.0807 38.9234C90.5031 38.3219 90.3575 37.4929 89.7561 37.0705C85.8144 34.3044 81.0512 32.5731 75.8033 31.9751L76.6488 28.4319H77.4512C80.3766 28.4319 83.1016 25.8893 83.1016 23.0754C83.1016 20.865 81.3498 19.2 79.0273 19.2H69.7073C66.7731 19.2 64.0849 21.7255 64.0849 24.5278C64.0849 26.7539 65.8422 28.4319 68.1735 28.4319H68.3492L67.5324 31.906C58.9007 32.6975 50.3085 36.2393 42.9938 42.0784C34.6341 48.752 28.9283 57.6394 26.9236 67.105L25.502 73.8182C21.8645 75.2617 19.7545 80.0058 22.1802 82.9906C23.0804 84.0986 24.4241 84.7089 25.9654 84.7089H33.1181C33.2548 86.1347 33.777 87.4449 34.6553 88.5365C38.666 93.5232 47.3251 91.0886 50.3885 84.7089H68.138C68.248 86.1347 68.7415 87.4449 69.6007 88.5399C73.4391 93.4227 82.1796 91.2274 85.4241 84.7089H93.0293C97.9894 84.7089 101.783 78.6635 99.044 75.1011C98.7378 74.7033 98.3701 74.3705 97.9559 74.1046ZM73.1138 31.7673C72.1528 31.7304 71.0483 31.7304 70.3053 31.7481L71.0845 28.4319H73.9094L73.1138 31.7673ZM66.7478 24.5278C66.7478 23.2121 68.2569 21.8629 69.7073 21.8629H79.0273C79.8974 21.8629 80.4387 22.3283 80.4387 23.0754C80.4387 24.3808 78.918 25.769 77.4512 25.769C74.1609 25.769 71.2226 25.769 68.9739 25.769C68.7306 25.7164 66.7478 26.1012 66.7478 24.5278ZM33.2828 82.0461H25.9654C25.2409 82.0461 24.6319 81.785 24.2471 81.3127C22.8678 79.6087 24.9176 76.0279 27.8101 76.0279H36.999C34.9485 77.7579 33.6922 80.0038 33.2828 82.0461ZM40.5196 88.5296C38.9373 88.5296 37.5915 87.9384 36.729 86.8681C33.6916 83.0986 38.0269 76.0279 43.9152 76.0279C45.5275 76.0279 46.8911 76.6246 47.7536 77.7073C50.733 81.4507 46.3375 88.5296 40.5196 88.5296ZM68.3595 82.0461H51.2442C51.6352 79.7461 51.1513 77.8064 49.8198 76.0279H72.1802C70.0388 77.8139 68.6937 80.2615 68.3595 82.0461ZM82.2992 84.7089C77.6761 91.0585 68.8748 88.9985 71.1242 82.0461C72.2266 78.6799 75.724 76.0279 79.1859 76.0279C83.8118 76.0279 85.2341 80.6914 82.2992 84.7089ZM93.0293 82.0461H86.3366C86.7679 79.7933 86.3209 77.6806 85.0496 76.0457C85.0441 76.0402 85.0407 76.0334 85.0352 76.0279H95.291C96.0052 76.0279 96.5875 76.276 96.9334 76.7258C98.217 78.3873 95.9239 82.0461 93.0293 82.0461Z" fill="#763D6D"/>
<path d="M38.4705 81.9893C38.0249 84.4423 39.6666 86.0437 41.6713 86.0437C44.9226 86.0437 47.3053 82.1547 45.3607 79.7112C43.4367 77.2985 39.1861 78.7687 38.4705 81.9893ZM43.3492 82.046C43.0403 83.1731 41.5715 83.698 41.1566 83.182C40.7034 82.614 41.6214 81.1759 42.7614 81.1759C42.9268 81.1759 43.1503 81.2115 43.2816 81.3748C43.4237 81.5505 43.4135 81.869 43.3492 82.046Z" fill="#763D6D"/>
<path d="M77.9037 78.5131C75.9441 78.5131 74.0351 80.0277 73.558 81.9592C72.6627 85.5462 76.9188 87.5235 79.7942 84.7089C82.2882 82.29 81.1325 78.5131 77.9037 78.5131ZM78.4259 82.046C78.052 83.1963 76.5784 83.6727 76.2066 83.1997C75.9803 82.9113 76.1731 82.37 76.4034 82.046C77.1655 80.9634 78.864 80.8055 78.4259 82.046Z" fill="#763D6D"/>
<path d="M16.7923 52.667C16.7923 53.4024 17.3883 53.9984 18.1237 53.9984H29.3077C30.0431 53.9984 30.6391 53.4024 30.6391 52.667C30.6391 51.9315 30.0431 51.3355 29.3077 51.3355H18.1237C17.3883 51.3355 16.7923 51.9315 16.7923 52.667Z" fill="#763D6D"/>
<path d="M21.3512 57.843C20.6164 57.843 20.0197 58.4377 20.0197 59.1745C20.0197 59.9099 20.6164 60.5059 21.3512 60.5059H26.6769C27.4124 60.5059 28.0084 59.9099 28.0084 59.1745C28.0084 58.4377 27.4124 57.843 26.6769 57.843H21.3512Z" fill="#763D6D"/>
<path d="M16.0254 57.843H12.5314C11.7967 57.843 11.2 58.4377 11.2 59.1745C11.2 59.9099 11.7967 60.5059 12.5314 60.5059H16.0254C16.7602 60.5059 17.3569 59.9099 17.3569 59.1745C17.3569 58.4377 16.7602 57.843 16.0254 57.843Z" fill="#763D6D"/>
<path d="M25.7897 65.6239C25.7897 64.8884 25.193 64.2924 24.4583 64.2924H18.717C17.9816 64.2924 17.3856 64.8884 17.3856 65.6239C17.3856 66.3593 17.9816 66.9553 18.717 66.9553H24.4583C25.193 66.9553 25.7897 66.3593 25.7897 65.6239Z" fill="#763D6D"/>
<path d="M12.5314 47.4663H26.7343C27.4705 47.4663 28.0658 46.8703 28.0658 46.1349C28.0658 45.4002 27.4705 44.8035 26.7343 44.8035H12.5314C11.7967 44.8035 11.2 45.4002 11.2 46.1349C11.2 46.8703 11.7967 47.4663 12.5314 47.4663Z" fill="#763D6D"/>
<path d="M32.0601 47.4663H34.414C35.1488 47.4663 35.7454 46.8703 35.7454 46.1349C35.7454 45.4002 35.1488 44.8035 34.414 44.8035H32.0601C31.3246 44.8035 30.7286 45.4002 30.7286 46.1349C30.7286 46.8703 31.3246 47.4663 32.0601 47.4663Z" fill="#763D6D"/>
</svg>
