<svg width="120" height="120" viewBox="0 0 120 120" fill="none" xmlns="http://www.w3.org/2000/svg">
<circle cx="60" cy="60" r="60" fill="#CADA66"/>
<path d="M31.0889 82.1462L31.0745 82.1324C30.451 81.5356 29.462 81.5569 28.8651 82.1804C28.2681 82.8037 28.2896 83.7929 28.913 84.3898L28.9274 84.4036C29.2303 84.6934 29.6194 84.8375 30.008 84.8375C30.4193 84.8375 30.83 84.6761 31.1369 84.3556C31.7338 83.7323 31.7124 82.7431 31.0889 82.1462Z" fill="#763D6D"/>
<path d="M31.0889 66.2071L31.0745 66.1934C30.451 65.5966 29.462 65.6179 28.8651 66.2414C28.2681 66.8647 28.2896 67.8539 28.913 68.4508L28.9274 68.4645C29.2303 68.7544 29.6194 68.8985 30.008 68.8985C30.4193 68.8985 30.83 68.7371 31.1369 68.4166C31.7338 67.7932 31.7124 66.8041 31.0889 66.2071Z" fill="#763D6D"/>
<path d="M91.0816 82.1404L91.067 82.1266C90.4401 81.533 89.4514 81.56 88.8578 82.1863C88.2643 82.8129 88.291 83.8019 88.9175 84.3956L88.932 84.4093C89.2344 84.6956 89.6206 84.8375 90.0065 84.8375C90.4206 84.8375 90.8339 84.6739 91.1413 84.3496C91.7348 83.723 91.708 82.734 91.0816 82.1404Z" fill="#763D6D"/>
<path d="M91.0816 66.2013L91.067 66.1876C90.4401 65.5939 89.4514 65.6208 88.8578 66.2472C88.2643 66.8739 88.291 67.8629 88.9175 68.4565L88.932 68.4703C89.2344 68.7566 89.6206 68.8984 90.0065 68.8984C90.4206 68.8984 90.8339 68.7348 91.1413 68.4106C91.7348 67.784 91.708 66.795 91.0816 66.2013Z" fill="#763D6D"/>
<path d="M42.2925 73.7358H42.2722C41.4093 73.7358 40.7095 74.4356 40.7095 75.2985C40.7095 76.1614 41.4093 76.8611 42.2722 76.8611H42.2925C43.1554 76.8611 43.8551 76.1614 43.8551 75.2985C43.8551 74.4356 43.1555 73.7358 42.2925 73.7358Z" fill="#763D6D"/>
<path d="M100.008 59.2227C100.008 52.8713 95.2237 47.6195 89.0703 46.8729C88.7046 42.9314 86.4935 39.5191 83.3111 37.5072C83.992 37.1143 84.6224 36.6346 85.1865 36.0705C87.3603 33.8965 88.2936 30.7518 87.7473 27.4426C87.6384 26.7821 87.1206 26.2643 86.4602 26.1554C83.151 25.6088 80.0061 26.5425 77.8322 28.7163C76.0251 30.5235 75.0788 33.0022 75.1236 35.6878C69.3732 36.4099 64.832 41.0681 64.2935 46.8729C61.1651 47.2525 58.3925 48.7961 56.4209 51.058C56.3384 50.3503 56.1701 49.6596 55.9218 48.997C59.208 47.7099 61.5426 44.51 61.5426 40.7729C61.5426 35.9039 57.5813 31.9426 52.7122 31.9426C52.6804 31.9426 52.6486 31.9438 52.6168 31.9441C53.0951 30.5695 53.4846 28.7843 53.3798 26.7496C53.3467 26.1051 52.9208 25.5476 52.3081 25.3457C50.327 24.6933 48.0432 25.3277 46.4179 26.012C45.9991 24.0932 44.9829 21.3668 42.522 19.0744C42.0382 18.6239 41.3235 18.5266 40.7365 18.8311C36.8513 20.8493 35.1058 24.1937 34.3331 26.5228C33.4288 25.9959 32.2721 25.5318 30.9262 25.446C30.2277 25.4025 29.5858 25.8263 29.3532 26.4856C28.6161 28.5754 28.7323 30.4777 29.087 31.9468C29.0017 31.9443 28.9162 31.9426 28.8305 31.9426C23.9615 31.9426 20 35.9039 20 40.7729C20 44.2537 22.0249 47.2695 24.9581 48.707C24.5151 49.7712 24.2849 50.9155 24.2849 52.0915C24.2849 54.2652 25.076 56.2565 26.3831 57.7966H21.5627C20.6998 57.7966 20 58.4964 20 59.3593V91.2374C20 92.1003 20.6998 92.8 21.5627 92.8H98.4451C99.308 92.8 100.008 92.1003 100.008 91.2374V59.3593C100.008 59.3361 100.005 59.3138 100.004 59.2908C100.005 59.2682 100.008 59.2458 100.008 59.2227ZM96.7734 57.7968H78.3538C79.0421 53.3328 82.9098 49.9038 87.5636 49.9038C92.2173 49.9038 96.0849 53.3328 96.7734 57.7968ZM80.0421 30.9264C81.2434 29.725 82.9286 29.0926 84.7724 29.1303C84.8061 30.9784 84.1776 32.6592 82.9764 33.8606C81.775 35.0619 80.0885 35.6923 78.2461 35.6567C78.2124 33.8085 78.8409 32.1276 80.0421 30.9264ZM76.6819 38.7121C81.4336 38.7121 85.3632 42.2878 85.9283 46.8893C81.9482 47.4144 78.5558 49.8251 76.6819 53.1943C74.8078 49.8251 71.4155 47.4144 67.4354 46.8893C68.0004 42.2878 71.9303 38.7121 76.6819 38.7121ZM65.8004 49.9038C70.4541 49.9038 74.3218 53.3328 75.0103 57.7968H56.5904C57.2789 53.3328 61.1466 49.9038 65.8004 49.9038ZM52.7122 35.068C55.858 35.0679 58.4173 37.6272 58.4173 40.7729C58.4173 43.6582 56.264 46.0486 53.4803 46.4251C53.4776 46.4254 53.4751 46.4257 53.4725 46.426C53.2235 46.4593 52.9702 46.4782 52.7122 46.4782C51.3537 46.4782 50.0553 45.9955 49.0327 45.1307C49.3994 44.1614 49.6018 43.1118 49.6018 42.0156C49.6018 40.2696 49.0903 38.6418 48.2124 37.2701C49.2838 35.8943 50.9344 35.068 52.7122 35.068ZM40.7714 47.7206C37.6255 47.7206 35.0661 45.1613 35.0661 42.0156C35.0661 38.8698 37.6255 36.3105 40.7714 36.3105C43.9172 36.3105 46.4765 38.8698 46.4765 42.0156C46.4765 45.1018 44.0128 47.6216 40.9492 47.7161C40.9447 47.7161 40.94 47.7164 40.9355 47.7164C40.8808 47.718 40.8264 47.7206 40.7714 47.7206ZM40.9186 57.7968H39.8475C40.0371 57.5733 40.216 57.3408 40.3831 57.0992C40.5501 57.3408 40.729 57.5733 40.9186 57.7968ZM38.8206 52.0917C38.8206 55.2375 36.2613 57.7968 33.1155 57.7968C29.9696 57.7968 27.4102 55.2375 27.4102 52.0917C27.4102 51.2041 27.6137 50.345 28.0022 49.5635C28.275 49.589 28.5511 49.6036 28.8305 49.6036C30.7506 49.6036 32.6131 48.968 34.1321 47.8282C35.2966 49.1566 36.851 50.1345 38.6163 50.5789C38.7512 51.0688 38.8206 51.5748 38.8206 52.0917ZM42.1065 50.745C44.208 50.4248 46.0664 49.36 47.408 47.8308C48.9241 48.9719 50.7781 49.6035 52.7121 49.6035C52.7363 49.6035 52.7602 49.6019 52.7844 49.6016C53.1601 50.3731 53.356 51.2201 53.356 52.0917C53.356 55.2375 50.7967 57.7968 47.651 57.7968C44.505 57.7968 41.9457 55.2375 41.9457 52.0917C41.9457 51.6332 42.0004 51.183 42.1065 50.745ZM31.9876 28.8474C33.266 29.3373 34.1017 30.2757 34.1076 30.2824C34.5159 30.7603 35.171 30.9465 35.7697 30.7562C36.3685 30.5654 36.7949 30.0346 36.8518 29.4086C36.8562 29.3596 37.3123 24.8394 41.1864 22.1965C43.5726 25.0259 43.5851 28.3578 43.5849 28.3878C43.5762 28.9601 43.8822 29.4906 44.3806 29.7719C44.8788 30.053 45.4925 30.0386 45.978 29.7353C46.6726 29.3012 48.6398 28.2992 50.2404 28.2011C50.0554 30.5502 49.097 32.3173 48.7579 32.8772C47.7414 33.3863 46.827 34.0903 46.0692 34.9558C44.5924 33.8448 42.7577 33.1852 40.7714 33.1852C38.7843 33.1852 36.9487 33.8454 35.4713 34.9574C34.7041 34.0851 33.7743 33.3757 32.7436 32.8647C32.4198 32.2551 31.7519 30.7276 31.9876 28.8474ZM23.1253 40.7729C23.1253 37.6272 25.6846 35.0679 28.8305 35.0679C30.5917 35.0679 32.2576 35.8965 33.3311 37.2687C32.4526 38.6407 31.941 40.269 31.941 42.0154C31.941 43.1116 32.1434 44.1611 32.5101 45.1304C31.4839 46.0031 30.2018 46.4782 28.8307 46.4782C28.3927 46.4782 27.9669 46.4269 27.557 46.333C27.5568 46.333 27.5567 46.3329 27.5565 46.3329C25.022 45.7523 23.1253 43.4807 23.1253 40.7729ZM96.8824 73.7358H48.4923C47.6294 73.7358 46.9296 74.4356 46.9296 75.2985C46.9296 76.1614 47.6294 76.8611 48.4923 76.8611H96.8824V89.6749H23.1253V76.8611H36.0433C36.9062 76.8611 37.6059 76.1614 37.6059 75.2985C37.6059 74.4356 36.9062 73.7358 36.0433 73.7358H23.1253V60.9221H96.8824V73.7358Z" fill="#763D6D"/>
<path d="M76.3108 22.5031C72.9112 19.1035 67.3793 19.1034 63.9794 22.5031C63.3692 23.1133 63.3692 24.1027 63.9794 24.7131C64.5898 25.3232 65.579 25.3232 66.1895 24.7131C68.3708 22.5318 71.9202 22.532 74.1009 24.7131C74.4061 25.0183 74.8059 25.1708 75.2058 25.1708C75.6059 25.1708 76.0056 25.0181 76.3108 24.7131C76.921 24.1029 76.921 23.1134 76.3108 22.5031Z" fill="#763D6D"/>
<path d="M81.3714 17.4425C75.181 11.2524 65.1091 11.2526 58.9185 17.4425C58.3083 18.0528 58.3083 19.0422 58.9185 19.6524C59.5292 20.2628 60.5183 20.2628 61.1287 19.6524C66.1001 14.681 74.1901 14.6807 79.1615 19.6524C79.4667 19.9576 79.8666 20.1101 80.2665 20.1101C80.6664 20.1101 81.0662 19.9575 81.3714 19.6524C81.9817 19.0422 81.9817 18.0528 81.3714 17.4425Z" fill="#763D6D"/>
<path d="M71.2501 27.597C70.9595 27.3063 70.5563 27.1391 70.1453 27.1391C69.7329 27.1391 69.3312 27.3063 69.0407 27.597C68.7485 27.8892 68.5827 28.2908 68.5827 28.7018C68.5827 29.1127 68.7485 29.5159 69.0407 29.8081C69.3312 30.0988 69.7329 30.2644 70.1453 30.2644C70.5563 30.2644 70.9595 30.0988 71.2501 29.8081C71.5408 29.5159 71.708 29.1143 71.708 28.7018C71.708 28.2908 71.5409 27.8892 71.2501 27.597Z" fill="#763D6D"/>
</svg>
