<svg width="120" height="120" viewBox="0 0 120 120" fill="none" xmlns="http://www.w3.org/2000/svg">
<circle cx="60" cy="60" r="60" fill="#CADA66"/>
<path d="M36.6043 28.7041V105.895C36.6043 107.057 37.5475 108 38.7094 108H80.8133C81.976 108 82.9185 107.057 82.9185 105.895V28.7041C82.9185 27.5422 81.976 26.599 80.8133 26.599H72.627V14.1051C72.627 13.388 72.2611 12.72 71.6575 12.3322C71.0531 11.9458 70.2943 11.8932 69.6424 12.1917L38.0911 26.6912C37.2065 26.9627 36.6036 27.78 36.6043 28.7041ZM78.7082 103.79H40.8153V30.8093H78.7082V103.79ZM68.416 26.599H48.376L68.416 17.3898V26.599Z" fill="#763D6D"/>
<path d="M48.0665 66.0812H71.457C72.6197 66.0812 73.5621 65.1388 73.5621 63.9761C73.5541 57.1698 68.5916 51.3834 61.8665 50.3364V49.0061C61.8665 47.8442 60.9241 46.901 59.7614 46.901C58.5994 46.901 57.6562 47.8442 57.6562 49.0061V50.3364C50.9319 51.3834 45.9694 57.1698 45.9606 63.9761C45.9606 65.1388 46.9038 66.0812 48.0665 66.0812ZM59.7614 54.3864C64.2453 54.3922 68.1277 57.4991 69.1177 61.871H50.405C51.3958 57.4991 55.2782 54.3922 59.7614 54.3864Z" fill="#763D6D"/>
<path d="M69.586 68.8888H49.9375C48.7755 68.8888 47.8323 69.8312 47.8323 70.9939C47.8323 72.1559 48.7755 73.099 49.9375 73.099H69.586C70.748 73.099 71.6911 72.1559 71.6911 70.9939C71.6911 69.8312 70.748 68.8888 69.586 68.8888Z" fill="#763D6D"/>
<path d="M46.4289 91.3442H73.0945C74.2565 91.3442 75.1996 90.401 75.1996 89.2383C75.1996 88.0763 74.2565 87.1332 73.0945 87.1332H46.4289C45.2662 87.1332 44.3238 88.0763 44.3238 89.2383C44.3238 90.401 45.2662 91.3442 46.4289 91.3442Z" fill="#763D6D"/>
<path d="M46.4289 100.232H73.0945C74.2565 100.232 75.1996 99.2898 75.1996 98.1271C75.1996 96.9652 74.2565 96.022 73.0945 96.022H46.4289C45.2662 96.022 44.3238 96.9652 44.3238 98.1271C44.3238 99.2898 45.2662 100.232 46.4289 100.232Z" fill="#763D6D"/>
</svg>
